<svg width="18" height="16" viewBox="0 0 18 16" fill="none" xmlns="http://www.w3.org/2000/svg">
<path fill-rule="evenodd" clip-rule="evenodd" d="M0.00292969 14.7511C0.00292969 14.5522 0.0819475 14.3614 0.2226 14.2208C0.363252 14.0801 0.554017 14.0011 0.75293 14.0011H17.2529C17.4518 14.0011 17.6426 14.0801 17.7833 14.2208C17.9239 14.3614 18.0029 14.5522 18.0029 14.7511C18.0029 14.95 17.9239 15.1408 17.7833 15.2814C17.6426 15.4221 17.4518 15.5011 17.2529 15.5011H0.75293C0.554017 15.5011 0.363252 15.4221 0.2226 15.2814C0.0819475 15.1408 0.00292969 14.95 0.00292969 14.7511ZM0.00292969 10.2511C0.00292969 10.0522 0.0819475 9.86142 0.2226 9.72077C0.363252 9.58012 0.554017 9.5011 0.75293 9.5011H17.2529C17.4518 9.5011 17.6426 9.58012 17.7833 9.72077C17.9239 9.86142 18.0029 10.0522 18.0029 10.2511C18.0029 10.45 17.9239 10.6408 17.7833 10.7814C17.6426 10.9221 17.4518 11.0011 17.2529 11.0011H0.75293C0.554017 11.0011 0.363252 10.9221 0.2226 10.7814C0.0819475 10.6408 0.00292969 10.45 0.00292969 10.2511ZM0.00292969 5.7511C0.00292969 5.55219 0.0819475 5.36142 0.2226 5.22077C0.363252 5.08012 0.554017 5.0011 0.75293 5.0011H17.2529C17.4518 5.0011 17.6426 5.08012 17.7833 5.22077C17.9239 5.36142 18.0029 5.55219 18.0029 5.7511C18.0029 5.95001 17.9239 6.14078 17.7833 6.28143C17.6426 6.42208 17.4518 6.5011 17.2529 6.5011H0.75293C0.554017 6.5011 0.363252 6.42208 0.2226 6.28143C0.0819475 6.14078 0.00292969 5.95001 0.00292969 5.7511ZM0.00292969 1.2511C0.00292969 1.05219 0.0819475 0.861421 0.2226 0.720769C0.363252 0.580116 0.554017 0.501099 0.75293 0.501099H17.2529C17.4518 0.501099 17.6426 0.580116 17.7833 0.720769C17.9239 0.861421 18.0029 1.05219 18.0029 1.2511C18.0029 1.45001 17.9239 1.64078 17.7833 1.78143C17.6426 1.92208 17.4518 2.0011 17.2529 2.0011H0.75293C0.554017 2.0011 0.363252 1.92208 0.2226 1.78143C0.0819475 1.64078 0.00292969 1.45001 0.00292969 1.2511Z" fill="white"/>
</svg>
