<svg width="24" height="20" viewBox="0 0 24 20" fill="none" xmlns="http://www.w3.org/2000/svg">
<path fill-rule="evenodd" clip-rule="evenodd" d="M0.00390625 19.0011C0.00390625 18.7359 0.109263 18.4815 0.2968 18.294C0.484336 18.1065 0.73869 18.0011 1.00391 18.0011H23.0039C23.2691 18.0011 23.5235 18.1065 23.711 18.294C23.8986 18.4815 24.0039 18.7359 24.0039 19.0011C24.0039 19.2663 23.8986 19.5207 23.711 19.7082C23.5235 19.8957 23.2691 20.0011 23.0039 20.0011H1.00391C0.73869 20.0011 0.484336 19.8957 0.2968 19.7082C0.109263 19.5207 0.00390625 19.2663 0.00390625 19.0011ZM0.00390625 13.0011C0.00390625 12.7359 0.109263 12.4815 0.2968 12.294C0.484336 12.1065 0.73869 12.0011 1.00391 12.0011H23.0039C23.2691 12.0011 23.5235 12.1065 23.711 12.294C23.8986 12.4815 24.0039 12.7359 24.0039 13.0011C24.0039 13.2663 23.8986 13.5207 23.711 13.7082C23.5235 13.8957 23.2691 14.0011 23.0039 14.0011H1.00391C0.73869 14.0011 0.484336 13.8957 0.2968 13.7082C0.109263 13.5207 0.00390625 13.2663 0.00390625 13.0011ZM0.00390625 7.0011C0.00390625 6.73588 0.109263 6.48153 0.2968 6.29399C0.484336 6.10646 0.73869 6.0011 1.00391 6.0011H23.0039C23.2691 6.0011 23.5235 6.10646 23.711 6.29399C23.8986 6.48153 24.0039 6.73588 24.0039 7.0011C24.0039 7.26632 23.8986 7.52067 23.711 7.70821C23.5235 7.89574 23.2691 8.0011 23.0039 8.0011H1.00391C0.73869 8.0011 0.484336 7.89574 0.2968 7.70821C0.109263 7.52067 0.00390625 7.26632 0.00390625 7.0011ZM0.00390625 1.0011C0.00390625 0.735882 0.109263 0.481528 0.2968 0.293992C0.484336 0.106456 0.73869 0.00109863 1.00391 0.00109863H23.0039C23.2691 0.00109863 23.5235 0.106456 23.711 0.293992C23.8986 0.481528 24.0039 0.735882 24.0039 1.0011C24.0039 1.26632 23.8986 1.52067 23.711 1.70821C23.5235 1.89574 23.2691 2.0011 23.0039 2.0011H1.00391C0.73869 2.0011 0.484336 1.89574 0.2968 1.70821C0.109263 1.52067 0.00390625 1.26632 0.00390625 1.0011Z" fill="#2C2C2C"/>
</svg>
